<svg id="visual" viewBox="0 0 600 900" width="600" height="900" xmlns="http://www.w3.org/2000/svg" xmlns:xlink="http://www.w3.org/1999/xlink" version="1.1"><rect x="0" y="0" width="600" height="900" fill="#fff"></rect><defs><linearGradient id="grad1_0" x1="0%" y1="0%" x2="100%" y2="100%"><stop offset="30%" stop-color="#ffffff" stop-opacity="1"></stop><stop offset="70%" stop-color="#ffffff" stop-opacity="1"></stop></linearGradient></defs><defs><linearGradient id="grad2_0" x1="0%" y1="0%" x2="100%" y2="100%"><stop offset="30%" stop-color="#ffffff" stop-opacity="1"></stop><stop offset="70%" stop-color="#ffffff" stop-opacity="1"></stop></linearGradient></defs><g transform="translate(600, 0)"><path d="M0 297.5C-46.1 300.3 -92.2 303.1 -113.8 274.8C-135.4 246.5 -132.5 187.1 -158.4 158.4C-184.3 129.7 -239 131.9 -267 110.6C-295 89.3 -296.2 44.7 -297.5 0L0 0Z" fill="#04558e"></path></g><g transform="translate(0, 900)"><path d="M0 -297.5C17.3 -243.6 34.6 -189.8 76.2 -183.9C117.7 -177.9 183.6 -219.8 210.3 -210.3C237.1 -200.9 224.8 -140.1 232.8 -96.4C240.8 -52.8 269.1 -26.4 297.5 0L0 0Z" fill="#04558e"></path></g></svg>